<?xml version="1.0" encoding="UTF-8"?>
<svg width="424px" height="478px" viewBox="0 0 424 478" version="1.1" xmlns="http://www.w3.org/2000/svg" xmlns:xlink="http://www.w3.org/1999/xlink">
    <!-- Generator: Sketch 60.1 (88133) - https://sketch.com -->
    <title>男人坐</title>
    <desc>Created with Sketch.</desc>
    <defs>
        <path d="M8.367,4.122 L6.717,22.84 C5.457,24.481 6.077,31.461 3.927,36.441 L3.927,36.441 C0.837,43.622 -0.003,46.181 0.148,50.221 L0.148,50.221 C0.387,56.811 8.297,56.891 16.207,55.91 L16.207,55.91 C24.725,54.848 29.238,55.377 35.233,55.906 L35.233,55.906 C39.893,56.317 45.449,56.728 54.477,56.391 L54.477,56.391 C72.687,55.702 70.797,48.771 61.567,45.721 L61.567,45.721 C52.327,42.671 35.787,35.861 31.447,31.321 L31.447,31.321 C26.517,26.191 30.157,10.521 30.056,4.061 L30.056,4.061 C30.017,1.099 27.614,0.108 24.423,0.108 L24.423,0.108 C17.997,0.108 8.367,4.122 8.367,4.122 L8.367,4.122 Z" id="path-1"></path>
        <path d="M3.365,4.158 L1.717,22.84 C1.342,23.328 1.134,24.286 0.97,25.523 L0.97,25.523 L24.163,15.049 C24.219,14.394 24.28,13.744 24.342,13.104 L24.342,13.104 L15.207,0.771 L3.365,4.158 Z" id="path-3"></path>
        <path d="M5.564,1.228 C5.295,3.596 4.887,6.218 3.927,8.441 L3.927,8.441 C0.837,15.622 -0.003,18.181 0.148,22.221 L0.148,22.221 C0.387,28.811 8.297,28.891 16.207,27.91 L16.207,27.91 C24.725,26.848 29.238,27.377 35.233,27.906 L35.233,27.906 C39.893,28.317 45.449,28.728 54.477,28.391 L54.477,28.391 C72.687,27.702 70.797,20.771 61.567,17.721 L61.567,17.721 C52.327,14.671 35.787,7.861 31.447,3.321 L31.447,3.321 C30.711,2.555 30.165,1.552 29.77,0.382 L29.77,0.382 C19.939,7.95 12.357,5.536 5.564,1.228 L5.564,1.228 Z" id="path-5"></path>
        <path d="M4.839,0.626 C4.88,1.239 4.934,1.904 5.005,2.603 L5.005,2.603 L3.756,3.838 C0.807,10.717 0,13.257 0.148,17.221 L0.148,17.221 C0.387,23.811 8.297,23.891 16.207,22.91 L16.207,22.91 C24.725,21.848 29.238,22.377 35.233,22.906 L35.233,22.906 C39.893,23.317 45.449,23.728 54.477,23.391 L54.477,23.391 C65.021,22.991 68.826,20.5 68.37,17.881 L68.37,17.881 C66.846,18.337 63.079,19.158 54.977,19.532 L54.977,19.532 C49.245,19.795 44.744,19.291 40.802,18.787 L40.802,18.787 C36.809,18.275 33.389,17.764 29.847,18.051 L29.847,18.051 C22.807,18.631 17.807,18.212 11.127,16.08 L11.127,16.08 C7.008,14.774 5.531,7.777 5.005,2.603 L5.005,2.603 L5.007,2.601 L4.895,0.39 C4.877,0.468 4.858,0.547 4.839,0.626 L4.839,0.626 Z" id="path-7"></path>
        <path d="M0.957,23.441 C-0.023,24.081 -0.273,25.381 0.397,26.321 L0.397,26.321 C0.797,26.891 1.467,27.231 2.177,27.231 L2.177,27.231 L69.917,27.231 C71.107,27.231 72.067,26.301 72.067,25.151 L72.067,25.151 C72.067,24.471 71.717,23.82 71.136,23.441 L71.136,23.441 L36.047,0.212 L0.957,23.441 Z" id="path-9"></path>
        <path d="M0.457,8.551 L0.457,85.451 L17.637,85.451 L17.637,8.551 C17.637,3.962 13.787,0.24 9.047,0.24 L9.047,0.24 C4.297,0.24 0.457,3.962 0.457,8.551 L0.457,8.551 Z" id="path-11"></path>
        <path d="M0.818,18.872 L15.367,32.84 C15.857,34.961 22.137,39.171 24.817,44.271 L24.817,44.271 C28.676,51.622 30.237,54.031 33.727,56.641 L33.727,56.641 C39.417,60.881 45.007,54.521 49.687,47.441 L49.687,47.441 C58.667,33.901 63.038,34.001 76.767,16.741 L76.767,16.741 C88.886,1.521 81.777,-1.628 72.777,3.801 L72.777,3.801 C63.777,9.231 46.537,18.051 39.707,18.511 L39.707,18.511 C31.967,19.051 21.376,5.532 15.897,1.241 L15.897,1.241 C15.051,0.58 14.206,0.286 13.372,0.286 L13.372,0.286 C6.736,0.285 0.818,18.872 0.818,18.872 L0.818,18.872 Z" id="path-13"></path>
        <path d="M7.722,1.317 C3.712,6.783 0.818,15.872 0.818,15.872 L0.818,15.872 L14.299,28.815 C10.027,19.223 17.419,8.52 21.59,3.566 L21.59,3.566 C20.653,2.64 19.757,1.752 18.919,0.945 L18.919,0.945 L7.722,1.317 Z" id="path-15"></path>
        <path d="M53.777,2.801 C44.777,8.231 27.537,17.051 20.707,17.511 L20.707,17.511 C19.552,17.592 18.333,17.359 17.077,16.891 L17.077,16.891 C16.56,29.958 9.266,34.48 0.918,37.086 L0.918,37.086 C2.711,38.9 4.622,40.997 5.817,43.271 L5.817,43.271 C9.676,50.622 11.237,53.031 14.727,55.641 L14.727,55.641 C20.417,59.881 26.007,53.521 30.687,46.441 L30.687,46.441 C39.667,32.901 44.038,33.001 57.767,15.741 L57.767,15.741 C66.27,5.062 65.307,0.325999125 60.867,0.325999125 L60.867,0.325999125 C58.979,0.325 56.463,1.181 53.777,2.801 L53.777,2.801 Z" id="path-17"></path>
        <path d="M60.977,4.781 C59.677,10.641 57.327,14.09 41.757,26.952 L41.757,26.952 C26.198,39.801 32.117,36.032 27.477,45.67 L27.477,45.67 C22.837,55.311 17.707,48.16 13.677,43.702 L13.677,43.702 C9.657,39.231 0.877,36.311 0.877,36.311 L0.877,36.311 L0.713,36.903 C2.258,38.52 3.797,40.33 4.817,42.271 L4.817,42.271 C8.676,49.622 10.237,52.031 13.727,54.641 L13.727,54.641 C19.417,58.881 25.007,52.521 29.687,45.441 L29.687,45.441 C38.667,31.901 43.038,32.001 56.767,14.741 L56.767,14.741 C63.219,6.637 64.221,1.955 62.388,0.169 L62.388,0.169 C61.819,1.561 61.326,3.195 60.977,4.781 L60.977,4.781 Z" id="path-19"></path>
        <path d="M0.547,33.92 L96.257,53.061 L114.437,76.83 C114.467,99.921 109.127,116.191 107.537,131.972 L107.537,131.972 C106.007,147.131 100.027,195.491 104.627,187.512 L104.627,187.512 C109.583,187.113 111.44,188.306 113.186,189.5 L113.186,189.5 C115.778,191.27 118.127,193.04 129.997,189.611 L129.997,189.611 C129.997,189.611 165.017,40.401 159.317,19.841 L159.317,19.841 C153.617,-0.719 52.337,1.261 52.337,1.261 L52.337,1.261 L3.927,0.141 L0.547,33.92 Z" id="path-21"></path>
        <path d="M0.657,27.951 C2.687,56.771 23.227,71.852 64.837,71.302 L64.837,71.302 C85.897,71.372 108.737,68.601 138.037,55.542 L138.037,55.542 C139.717,57.231 142.757,58.882 144.606,60.891 L144.606,60.891 C151.347,68.241 158.437,78.941 172.728,100.861 L172.728,100.861 C185.087,117.16 198.876,124.021 209.028,132.721 L209.028,132.721 C217.606,140.09 248.908,162.431 256.487,166.331 L256.487,166.331 C263.447,162.41 268.847,161.101 274.926,152.021 L274.926,152.021 C274.926,152.021 178.778,28.441 174.077,18.382 L174.077,18.382 C169.367,8.33 157.738,7.682 157.738,7.682 L157.738,7.682 L71.598,0.932 L0.657,27.951 Z" id="path-23"></path>
        <path d="M0.657,7.951 C1.506,20.001 5.592,29.648 13.098,36.757 L13.098,36.757 L40.443,49.422 C47.577,50.79 55.696,51.422 64.837,51.302 L64.837,51.302 C85.897,51.372 108.737,48.601 138.037,35.542 L138.037,35.542 C139.717,37.231 142.757,38.882 144.606,40.891 L144.606,40.891 C151.347,48.241 158.437,58.941 172.728,80.861 L172.728,80.861 C185.087,97.16 198.876,104.021 209.028,112.721 L209.028,112.721 C217.606,120.09 248.908,142.431 256.487,146.331 L256.487,146.331 C257.673,145.663 258.814,145.071 259.92,144.503 L259.92,144.503 C259.253,144.022 258.394,143.556 257.317,143.111 L257.317,143.111 C243.387,137.341 182.087,71.452 165.377,58.821 L165.377,58.821 C148.677,46.182 154.217,27.642 154.057,16.202 L154.057,16.202 C153.897,4.751 141.447,28.021 141.447,28.021 L141.447,28.021 L20.689,0.322 L0.657,7.951 Z" id="path-25"></path>
        <path d="M2.33,0.061 C2.092,9.69 1.576,15.122 0.667,18.396 L0.667,18.396 L0.667,24.532 C9.876,30.609 18.305,32.257 28.667,29.905 L28.667,29.905 L28.667,10.352 L14.784,0.061 L2.33,0.061 Z" id="path-27"></path>
        <linearGradient x1="3.72470221%" y1="107.70784%" x2="96.2752464%" y2="5.66894788%" id="linearGradient-29">
            <stop stop-color="#EFB1A3" offset="0%"></stop>
            <stop stop-color="#F6D4CD" offset="100%"></stop>
        </linearGradient>
        <path d="M85.022,0.66 C84.453,0.85 84.064,1.04 83.977,1.012 L83.977,1.012 C81.807,3.521 82.637,6.512 79.887,8.861 L79.887,8.861 C78.647,9.921 66.547,17.302 54.288,21.321 L54.288,21.321 C42.037,25.351 36.847,41.081 36.847,41.081 L36.847,41.081 C30.687,41.561 5.537,118.531 3.097,126.141 L3.097,126.141 C0.427,134.481 -1.423,143.731 2.007,148.661 L2.007,148.661 C-0.853,156.571 21.487,169.481 64.257,184.271 L64.257,184.271 C64.457,179.401 62.997,174.42 66.937,165.851 L66.937,165.851 L87.877,193.411 C108.737,176.261 138.197,176.441 148.997,157.861 L148.997,157.861 C148.997,157.861 148.447,126.131 146.567,121.951 L146.567,121.951 C144.687,117.781 148.957,73.641 150.027,64.901 L150.027,64.901 C150.687,59.561 149.187,34.901 142.187,31.121 L142.187,31.121 C138.537,29.151 132.577,25.701 125.307,22.381 L125.307,22.381 C121.677,20.722 121.707,17.921 121.707,17.921 L121.707,17.921 C122.587,12.791 122.137,9.932 119.657,10.811 L119.657,10.811 C112.707,14.871 91.967,13.151 89.267,0.981 L89.267,0.981 C88.513,0.474 87.724,0.304 86.991,0.304 L86.991,0.304 C86.243,0.304 85.553,0.482 85.022,0.66 L85.022,0.66 Z" id="path-30"></path>
        <path d="M0.747,57.181 C11.697,39.421 23.357,23.821 23.777,0.261 L23.777,0.261 C19.707,23.271 10.707,39.651 0.747,57.181 L0.747,57.181 Z" id="path-32"></path>
        <path d="M37.157,35.971 C24.408,21.702 11.997,8.971 0.577,0.661 L0.577,0.661 L37.157,35.971 Z" id="path-34"></path>
        <path d="M0.947,4.331 C7.877,0.841 14.636,0.871 21.227,4.261 L21.227,4.261 C17.656,1.678 14.116,0.207 10.617,0.207 L10.617,0.207 C7.356,0.207 4.131,1.485 0.947,4.331 L0.947,4.331 Z" id="path-36"></path>
        <path d="M0.887,65.601 C6.707,48.741 9.087,27.051 7.948,0.421 L7.948,0.421 C8.057,25.831 5.897,47.841 0.887,65.601 L0.887,65.601 Z" id="path-38"></path>
        <polygon id="path-40" points="97.686 0.581 93.177 75.241 1.098 112.202 0.817 22.141"></polygon>
        <linearGradient x1="0.153079725%" y1="0.46067823%" x2="0.153079725%" y2="906.655368%" id="linearGradient-42">
            <stop stop-color="#B2D9F1" offset="0%"></stop>
            <stop stop-color="#E5F3FB" offset="100%"></stop>
        </linearGradient>
        <polygon id="path-43" points="97.686 0.581 93.177 75.241 1.098 112.202 0.817 22.141"></polygon>
        <linearGradient x1="12.4283543%" y1="50.1335469%" x2="87.7903786%" y2="49.8623614%" id="linearGradient-45">
            <stop stop-color="#B2D9F1" offset="0%"></stop>
            <stop stop-color="#E5F3FB" offset="100%"></stop>
        </linearGradient>
        <path d="M2.627,19.952 C6.107,21.191 9.387,21.231 9.387,21.231 L9.387,21.231 C9.387,21.231 15.847,23.15 19.026,25.86 L19.026,25.86 C23.587,29.75 26.437,29.571 30.707,31.731 L30.707,31.731 C34.987,33.891 38.908,27.961 38.908,27.961 L38.908,27.961 C40.617,25.632 47.106,22.691 44.497,17.231 L44.497,17.231 L44.377,13.891 L45.187,9.891 C45.187,9.891 44.367,7.691 39.757,5.282 L39.757,5.282 C35.136,2.882 32.697,1.571 28.566,1.721 L28.566,1.721 C24.437,1.872 20.497,3.561 17.367,4.271 L17.367,4.271 C14.247,4.971 2.207,0.021 2.207,0.021 L2.207,0.021 C2.207,0.021 -0.863,18.722 2.627,19.952 L2.627,19.952 Z" id="path-46"></path>
        <path d="M1.727,4.008 L2.437,0.321 C2.437,0.321 2.025,1.848 1.727,4.008 L1.727,4.008 Z M1.523,5.064 C0.879,10.697 0.32,19.139 2.627,19.952 L2.627,19.952 C6.107,21.191 9.387,21.231 9.387,21.231 L9.387,21.231 C9.387,21.231 15.847,23.15 19.026,25.86 L19.026,25.86 C23.587,29.75 26.437,29.571 30.707,31.731 L30.707,31.731 C34.987,33.891 38.908,27.961 38.908,27.961 L38.908,27.961 C39.904,26.604 42.523,25.039 44.019,22.889 L44.019,22.889 C43.092,21.561 42.066,21.301 39.887,22.282 L39.887,22.282 C36.097,23.991 33.137,25.452 24.957,25.382 L24.957,25.382 C16.787,25.311 12.597,20.782 5.636,17.532 L5.636,17.532 C0.979,15.349 1.122,8.38 1.727,4.008 L1.727,4.008 L1.523,5.064 Z" id="path-48"></path>
        <path d="M0.107,14.311 C14.437,105.131 48.837,184.351 61.907,204.122 L61.907,204.122 C84.027,214.472 211.697,212.511 224.077,206.201 L224.077,206.201 C239.457,202.142 239.457,148.111 224.077,139.682 L224.077,139.682 C196.757,126.882 76.197,138.181 70.997,126.861 L70.997,126.861 C52.357,79.481 51.997,60.771 31.887,5.781 L31.887,5.781 C29.548,2.16 24.685,0.56 19.445,0.56 L19.445,0.56 C9.763,0.56 -1.204,6.026 0.107,14.311 L0.107,14.311 Z" id="path-50"></path>
        <path d="M29.357,3.102 L4.307,18.021 C-2.203,24.911 -0.063,34.88 2.927,44.671 L2.927,44.671 C6.037,54.841 16.667,68.181 27.377,71.401 L27.377,71.401 C38.348,74.711 43.848,73.781 50.247,63.001 L50.247,63.001 C53.707,57.182 56.837,50.601 57.867,42.591 L57.867,42.591 C58.967,34.07 60.197,27.081 59.347,22.471 L59.347,22.471 L56.177,14.171 L51.757,3.411 L39.527,0.331 L29.357,3.102 Z" id="path-52"></path>
        <path d="M0.667,0.061 L0.667,9.061 L37.615,9.061 C37.665,7.345 37.594,5.808 37.347,4.471 L37.347,4.471 L35.662,0.061" id="path-54"></path>
        <path d="M0.667,0.061 L0.667,9.061 L37.615,9.061 C37.665,7.345 37.594,5.808 37.347,4.471 L37.347,4.471 L35.662,0.061" id="path-56"></path>
        <path d="M12.354,0.372 L12.6876349,0.377392398 C13.1933745,0.393788772 13.6929871,0.447608984 14.1821753,0.539293003 C14.2657055,0.554609331 14.3493235,0.571449132 14.4326138,0.589407004 C14.6732567,0.641637742 14.9106016,0.702689155 15.1446973,0.773071355 C15.2379635,0.800821662 15.3307321,0.830358293 15.4229525,0.861380864 C15.6354703,0.933113649 15.8453635,1.01258245 16.0519301,1.10000092 C16.4560868,1.27088957 16.8475109,1.47241252 17.2231701,1.70466084 C17.2881777,1.74490293 17.3528766,1.78611245 17.4170853,1.82824886 C17.5699781,1.92855486 17.7200898,2.03415435 17.867207,2.14502624 L18.126941,2.3488268 L18.3804399,2.56424706 L18.3804399,2.56424706 L18.627,2.791 L18.8288299,2.9905934 C22.4564813,6.69973224 22.094804,13.1265737 18.0133142,17.6084888 L17.787,17.851 L17.5543408,18.0879225 C15.2066985,20.421081 12.2358798,21.6714335 9.3925772,21.7647709 L9.10869981,21.7704132 C6.85440758,21.7830683 4.69663424,21.0622274 3.01322001,19.5703713 L2.776,19.352 L2.57422184,19.1523549 C-1.05249823,15.4422847 -0.690804323,9.0154266 3.39068583,4.53351122 L3.617,4.291 L3.88499467,4.01912536 C6.32191071,1.61520536 9.42257143,0.372 12.354,0.372 Z" id="path-58"></path>
        <linearGradient x1="5.86646333%" y1="8.8907%" x2="5.86646333%" y2="3947.35224%" id="linearGradient-60">
            <stop stop-color="#F4AD9F" offset="0%"></stop>
            <stop stop-color="#FBE1DB" offset="100%"></stop>
        </linearGradient>
        <path d="M12.354,0.372 L12.6876349,0.377392398 C13.1933745,0.393788772 13.6929871,0.447608984 14.1821753,0.539293003 C14.2657055,0.554609331 14.3493235,0.571449132 14.4326138,0.589407004 C14.6732567,0.641637742 14.9106016,0.702689155 15.1446973,0.773071355 C15.2379635,0.800821662 15.3307321,0.830358293 15.4229525,0.861380864 C15.6354703,0.933113649 15.8453635,1.01258245 16.0519301,1.10000092 C16.4560868,1.27088957 16.8475109,1.47241252 17.2231701,1.70466084 C17.2881777,1.74490293 17.3528766,1.78611245 17.4170853,1.82824886 C17.5699781,1.92855486 17.7200898,2.03415435 17.867207,2.14502624 L18.126941,2.3488268 C18.2981927,2.48866893 18.465,2.63604762 18.627,2.791 L18.627,2.791 L18.8288299,2.9905934 C22.5224386,6.76717113 22.0803333,13.3611754 17.787,17.851 L17.787,17.851 L17.5543408,18.0879225 C15.2066985,20.421081 12.2358798,21.6714335 9.3925772,21.7647709 L9.10869981,21.7704132 C6.74706033,21.783679 4.49135088,20.9919123 2.776,19.352 L2.776,19.352 L2.57422184,19.1523549 C-1.1184386,15.3748289 -0.676333333,8.78082456 3.617,4.291 L3.617,4.291 L3.88499467,4.01912536 C6.32191071,1.61520536 9.42257143,0.372 12.354,0.372" id="path-61"></path>
        <linearGradient x1="17.1131737%" y1="18.3135635%" x2="82.8617477%" y2="81.6910199%" id="linearGradient-63">
            <stop stop-color="#F4AD9F" offset="0%"></stop>
            <stop stop-color="#FBE1DB" offset="100%"></stop>
        </linearGradient>
        <path d="M11.508,0.818 L11.6512442,0.825262003 C11.7913499,0.839550351 11.9301485,0.875038183 12.0672553,0.932739778 C12.2556731,1.01202707 12.4409307,1.13330085 12.6219997,1.29918318 L12.757,1.432 L12.7968542,1.48262099 C12.8490525,1.56916093 12.8461697,1.67894239 12.7946543,1.76327909 L12.747,1.821 L12.6965335,1.86085423 C12.6787201,1.87172886 12.6600321,1.88021283 12.6408192,1.88636443 L12.5819563,1.89788047 C12.5222187,1.90251603 12.4609067,1.88668513 12.4074665,1.8519621 L12.357,1.811 L12.248691,1.70321574 C12.0663294,1.53674344 11.8752216,1.4358688 11.682656,1.39694752 L11.567,1.381 L11.4319537,1.38086111 C11.2517685,1.39363889 11.0708426,1.45752778 10.886213,1.56363889 L10.747,1.651 L10.5861992,1.76900781 C10.265457,2.02330469 9.94963672,2.38588281 9.63451953,2.83142969 L9.477,3.061 L9.30038964,3.34010348 C6.89825781,7.26285049 4.86564478,15.7404652 5.3358573,19.946067 L5.377,20.261 L5.42899162,20.6153158 C5.85588106,23.6417414 5.68221159,25.6396025 4.71667731,26.9118001 L4.597,27.061 L4.45147388,27.221686 C3.74848315,27.9515249 2.70962231,28.4023892 1.26320972,28.6345718 L0.947,28.681 L0.883644315,28.6821866 C0.780131195,28.6715889 0.689664723,28.6003499 0.65196793,28.5019971 L0.636,28.44 L0.635495627,28.3770175 C0.646953353,28.2740437 0.717740525,28.1837522 0.815422741,28.1465948 L0.877,28.131 L1.18045244,28.0877674 C2.47462157,27.8852438 3.41046901,27.495035 4.04550432,26.844428 L4.177,26.701 L4.28763557,26.5621806 C5.17658592,25.3799075 5.28215519,23.5128168 4.88875345,20.6978294 L4.837,20.341 L4.79783146,20.0421298 C4.29906043,15.6492283 6.47609091,6.64077273 9.017,2.761 C9.09645215,2.64015013 9.1764071,2.52427988 9.25678022,2.41357845 C9.94496504,1.46667981 10.6634003,0.897399182 11.3600665,0.825703536 L11.508,0.818 Z" id="path-64"></path>
        <linearGradient x1="6.91484963%" y1="2.60821655%" x2="6.91484963%" y2="3533.6427%" id="linearGradient-66">
            <stop stop-color="#FBE1DB" offset="0%"></stop>
            <stop stop-color="#F9CEC6" offset="100%"></stop>
        </linearGradient>
        <path d="M11.4319537,1.38086111 C11.2067222,1.39683333 10.9803333,1.49266667 10.747,1.651 L10.747,1.651 L10.5861992,1.76900781 C10.212,2.0656875 9.8445,2.50975 9.477,3.061 L9.477,3.061 L9.30038964,3.34010348 C6.83666468,7.36343375 4.76165116,16.1782093 5.377,20.261 L5.377,20.261 L5.42899162,20.6153158 C5.87295663,23.7627985 5.66735714,25.7977857 4.597,27.061 L4.597,27.061 L4.45147388,27.221686 C3.69826953,28.0036562 2.5595,28.465375 0.947,28.681 L0.947,28.681 L0.883644315,28.6821866 C0.759428571,28.6694694 0.654,28.5694286 0.636,28.44 L0.636,28.44 L0.635495627,28.3770175 C0.649244898,28.253449 0.748428571,28.1481429 0.877,28.131 L0.877,28.131 L1.18045244,28.0877674 C2.56706222,27.8707778 3.54233333,27.4383333 4.177,26.701 L4.177,26.701 L4.28763557,26.5621806 C5.21362551,25.3306461 5.28959259,23.356037 4.837,20.341 L4.837,20.341 L4.79783146,20.0421298 C4.29906043,15.6492283 6.47609091,6.64077273 9.017,2.761 C9.09645215,2.64015013 9.1764071,2.52427988 9.25678022,2.41357845 C9.9941211,1.39904419 10.7661882,0.818 11.509,0.818 L11.508,0.818 L11.6512442,0.825262003 C11.7913499,0.839550351 11.9301485,0.875038183 12.0672553,0.932739778 C12.3027776,1.03184889 12.5333619,1.1965619 12.757,1.432 L12.757,1.432 L12.7968542,1.48262099 C12.862102,1.59079592 12.8412857,1.73528571 12.747,1.821 L12.747,1.821 L12.6965335,1.86085423 C12.6787201,1.87172886 12.6600321,1.88021283 12.6408192,1.88636443 L12.5819563,1.89788047 C12.5023061,1.90406122 12.4198571,1.87385714 12.357,1.811 L12.357,1.811 L12.248691,1.70321574 C12.0298571,1.50344898 11.7984286,1.39814286 11.567,1.381 L11.567,1.381" id="path-67"></path>
        <linearGradient x1="50.8690625%" y1="59.5817431%" x2="42.0725114%" y2="59.1511038%" id="linearGradient-69">
            <stop stop-color="#FBE1DB" offset="0%"></stop>
            <stop stop-color="#F9CEC6" offset="100%"></stop>
        </linearGradient>
        <path d="M1.837,0.791 C0.687,1.121 0.027,2.351 0.367,3.531 L0.367,3.531 C0.707,4.721 1.927,5.401 3.077,5.071 L3.077,5.071 C4.227,4.741 4.887,3.511 4.546,2.332 L4.546,2.332 C4.256,1.35 3.371,0.708 2.421,0.708 L2.421,0.708 C2.227,0.708 2.031,0.735 1.837,0.791 L1.837,0.791 Z" id="path-70"></path>
        <path d="M1.857,0.611 C0.707,0.941 0.047,2.171 0.397,3.351 L0.397,3.351 C0.737,4.541 1.947,5.221 3.097,4.891 L3.097,4.891 C4.247,4.561 4.907,3.331 4.567,2.151 L4.567,2.151 C4.284,1.171 3.401,0.529 2.445,0.528 L2.445,0.528 C2.25,0.528 2.053,0.555 1.857,0.611 L1.857,0.611 Z" id="path-72"></path>
        <path d="M0.677,1.581 C1.197,2.151 3.417,2.881 4.157,2.941 L4.157,2.941 C7.367,3.191 10.367,3.571 13.307,2.091 L13.307,2.091 C14.157,1.661 16.507,1.221 17.117,0.391 L17.117,0.391 L0.677,1.581 Z" id="path-74"></path>
        <path d="M8.537,16.461 C-0.613,22.591 4.417,32.82 1.207,41.401 L1.207,41.401 C-2.523,51.381 6.087,54.291 8.607,65.32 L8.607,65.32 C9.537,69.361 11.287,71.761 15.037,71.7811608 L15.037,71.7811608 C19.087,71.811 18.307,67.642 17.787,61.221 L17.787,61.221 C14.386,56.871 15.497,51.291 17.057,47.361 L17.057,47.361 C19.767,42.581 29.857,46.611 28.256,55.661 L28.256,55.661 C27.297,61.071 30.517,58.161 33.637,52.941 L33.637,52.941 C36.757,47.711 41.216,50.341 47.087,46.021 L47.087,46.021 C52.947,41.691 55.377,27.171 55.377,27.171 L55.377,27.171 C55.377,27.171 58.927,30.171 63.667,34.871 L63.667,34.871 C68.397,39.561 68.617,39.561 69.777,43.181 L69.777,43.181 C70.937,46.791 73.777,49.881 74.527,45.381 L74.527,45.381 C75.337,40.481 78.937,32.021 78.027,26.021 L78.027,26.021 C77.047,19.541 74.817,17.431 72.337,16.181 L72.337,16.181 C69.867,14.931 69.657,13.461 63.158,8.591 L63.158,8.591 C56.667,3.731 48.557,5.711 48.557,5.711 L48.557,5.711 C48.557,5.711 47.127,5.491 38.617,1.991 L38.617,1.991 C36.044,0.931 33.779,0.47 31.735,0.47 L31.735,0.47 C22.213,0.47 17.469,10.468 8.537,16.461 L8.537,16.461 Z" id="path-76"></path>
        <path d="M8.537,16.461 C-0.613,22.591 4.417,32.82 1.207,41.401 L1.207,41.401 C-2.523,51.381 6.087,54.291 8.607,65.32 L8.607,65.32 C9.537,69.361 11.287,71.761 15.037,71.7811608 L15.037,71.7811608 C19.087,71.811 18.307,67.642 17.787,61.221 L17.787,61.221 C14.386,56.871 15.497,51.291 17.057,47.361 L17.057,47.361 C17.095,47.293 17.135,47.228 17.176,47.164 L17.176,47.164 C14.711,41.592 18.852,37.023 21.997,29.611 L21.997,29.611 C25.907,20.431 25.087,10.521 38.587,8.181 L38.587,8.181 C48.965,6.375 44.869,7.091 44.374,4.284 L44.374,4.284 C42.96,3.746 41.087,3.007 38.617,1.991 L38.617,1.991 C36.043,0.931 33.779,0.47 31.735,0.47 L31.735,0.47 C22.213,0.47 17.469,10.468 8.537,16.461 L8.537,16.461 Z" id="path-78"></path>
        <polygon id="path-80" points="0.523 1.382 1.9 28.851 20.072 27.94 18.695 0.471"></polygon>
    </defs>
    <g id="页面-1" stroke="none" stroke-width="1" fill="none" fill-rule="evenodd">
        <g id="男人坐" transform="translate(0.000000, -1.000000)">
            <g id="编组" transform="translate(228.000000, 410.939000)">
                <mask id="mask-2" fill="white">
                    <use xlink:href="#path-1"></use>
                </mask>
                <g id="Clip-2"></g>
                <polygon id="Fill-1" fill="#FADACF" mask="url(#mask-2)" points="-4.87 61.515 73.406 61.515 73.406 -4.892 -4.87 -4.892"></polygon>
            </g>
            <g id="编组" transform="translate(233.000000, 410.939000)">
                <mask id="mask-4" fill="white">
                    <use xlink:href="#path-3"></use>
                </mask>
                <g id="Clip-4"></g>
                <polygon id="Fill-3" fill="#F6C2C3" mask="url(#mask-4)" points="-11.153 33.741 30.377 33.741 30.377 -4.229 -11.153 -4.229"></polygon>
            </g>
            <g id="编组" transform="translate(228.000000, 438.939000)">
                <mask id="mask-6" fill="white">
                    <use xlink:href="#path-5"></use>
                </mask>
                <g id="Clip-6"></g>
                <polygon id="Fill-5" fill="#656565" mask="url(#mask-6)" points="-14.893 50 84.217 50 84.217 -7.449 -14.893 -7.449"></polygon>
            </g>
            <g id="编组" transform="translate(228.000000, 443.939000)">
                <mask id="mask-8" fill="white">
                    <use xlink:href="#path-7"></use>
                </mask>
                <g id="Clip-8"></g>
                <polygon id="Fill-7" fill="#4D4D4D" mask="url(#mask-8)" points="-9.164 35.392 78.926 35.392 78.926 -8.128 -9.164 -8.128"></polygon>
            </g>
            <polygon id="Fill-9" fill="#D1D5E7" points="121.747 399.2 130.34 399.2 130.34 318.149 121.747 318.149"></polygon>
            <g id="编组" transform="translate(90.000000, 450.939000)">
                <mask id="mask-10" fill="white">
                    <use xlink:href="#path-9"></use>
                </mask>
                <g id="Clip-11"></g>
                <polygon id="Fill-10" fill="#DBDEED" mask="url(#mask-10)" points="-4.979 32.231 77.067 32.231 77.067 -4.789 -4.979 -4.789"></polygon>
            </g>
            <g id="编组" transform="translate(117.000000, 371.939000)">
                <mask id="mask-12" fill="white">
                    <use xlink:href="#path-11"></use>
                </mask>
                <g id="Clip-13"></g>
                <polygon id="Fill-12" fill="#DBDEED" mask="url(#mask-12)" points="-4.543 90.452 22.637 90.452 22.637 -4.759 -4.543 -4.759"></polygon>
            </g>
            <polygon id="Fill-14" fill="#DBDEED" points="23.6272 141.5003 67.0972 286.9713 229.8672 279.3913 181.6972 141.5003"></polygon>
            <g id="编组" transform="translate(340.000000, 391.939000)">
                <mask id="mask-14" fill="white">
                    <use xlink:href="#path-13"></use>
                </mask>
                <g id="Clip-16"></g>
                <polygon id="Fill-15" fill="#FADACF" mask="url(#mask-14)" points="-4.183 63.007 88.205 63.007 88.205 -4.714 -4.183 -4.714"></polygon>
            </g>
            <g id="编组" transform="translate(340.000000, 394.939000)">
                <mask id="mask-16" fill="white">
                    <use xlink:href="#path-15"></use>
                </mask>
                <g id="Clip-18"></g>
                <polygon id="Fill-17" fill="#F6C2C3" mask="url(#mask-16)" points="-8.353 47.724 29.147 47.724 29.147 -4.229 -8.353 -4.229"></polygon>
            </g>
            <g id="编组" transform="translate(359.000000, 392.939000)">
                <mask id="mask-18" fill="white">
                    <use xlink:href="#path-17"></use>
                </mask>
                <g id="Clip-20"></g>
                <polygon id="Fill-19" fill="#656565" mask="url(#mask-18)" points="-6.483 74.208 84.898 74.208 84.898 -16.759 -6.483 -16.759"></polygon>
            </g>
            <g id="编组" transform="translate(360.000000, 393.939000)">
                <mask id="mask-20" fill="white">
                    <use xlink:href="#path-19"></use>
                </mask>
                <g id="Clip-22"></g>
                <polygon id="Fill-21" fill="#4D4D4D" mask="url(#mask-20)" points="-8.073 65.941 72.724 65.941 72.724 -8.489 -8.073 -8.489"></polygon>
            </g>
            <g id="编组" transform="translate(129.000000, 235.939000)">
                <mask id="mask-22" fill="white">
                    <use xlink:href="#path-21"></use>
                </mask>
                <g id="Clip-24"></g>
                <polygon id="Fill-23" fill="#6C91A1" mask="url(#mask-22)" points="-4.453 196.565 164.944 196.565 164.944 -4.859 -4.453 -4.859"></polygon>
            </g>
            <g id="编组" transform="translate(86.000000, 245.939000)">
                <mask id="mask-24" fill="white">
                    <use xlink:href="#path-23"></use>
                </mask>
                <g id="Clip-26"></g>
                <polygon id="Fill-25" fill="#89AEBC" mask="url(#mask-24)" points="-4.343 171.33 279.927 171.33 279.927 -4.069 -4.343 -4.069"></polygon>
            </g>
            <g id="编组" transform="translate(86.000000, 265.939000)">
                <mask id="mask-26" fill="white">
                    <use xlink:href="#path-25"></use>
                </mask>
                <g id="Clip-28"></g>
                <polygon id="Fill-27" fill="#6C91A1" mask="url(#mask-26)" points="-9.383 163.081 266.852 163.081 266.852 -7.718 -9.383 -7.718"></polygon>
            </g>
            <polygon id="Fill-29" fill="#3E3E3F" points="85.5265 276.71 124.3765 257 84.4065 253.621"></polygon>
            <g id="编组" transform="translate(134.000000, 66.939000)">
                <mask id="mask-28" fill="white">
                    <use xlink:href="#path-27"></use>
                </mask>
                <g id="Clip-31"></g>
                <path d="M2.33,0.061 C2.092,9.69 1.576,15.122 0.667,18.396 L0.667,18.396 L0.667,24.532 C9.876,30.609 18.305,32.257 28.667,29.905 L28.667,29.905 L28.667,10.352 L14.784,0.061 L2.33,0.061 Z" id="Fill-30" fill="url(#linearGradient-29)" mask="url(#mask-28)"></path>
            </g>
            <g id="编组" transform="translate(45.000000, 83.939000)">
                <mask id="mask-31" fill="white">
                    <use xlink:href="#path-30"></use>
                </mask>
                <g id="Clip-33"></g>
                <polygon id="Fill-32" fill="#3B3C3C" mask="url(#mask-31)" points="-4.861 198.41 155.168 198.41 155.168 -4.696 -4.861 -4.696"></polygon>
            </g>
            <g id="编组" transform="translate(84.000000, 139.939000)">
                <mask id="mask-33" fill="white">
                    <use xlink:href="#path-32"></use>
                </mask>
                <g id="Clip-35"></g>
                <polygon id="Fill-34" fill="#303131" mask="url(#mask-33)" points="-4.253 62.181 28.777 62.181 28.777 -4.739 -4.253 -4.739"></polygon>
            </g>
            <g id="编组" transform="translate(72.000000, 210.939000)">
                <mask id="mask-35" fill="white">
                    <use xlink:href="#path-34"></use>
                </mask>
                <g id="Clip-37"></g>
                <polygon id="Fill-36" fill="#303131" mask="url(#mask-35)" points="-4.423 40.971 42.157 40.971 42.157 -4.339 -4.423 -4.339"></polygon>
            </g>
            <g id="编组" transform="translate(53.000000, 205.939000)">
                <mask id="mask-37" fill="white">
                    <use xlink:href="#path-36"></use>
                </mask>
                <g id="Clip-39"></g>
                <polygon id="Fill-38" fill="#303131" mask="url(#mask-37)" points="-4.053 9.331 26.227 9.331 26.227 -4.793 -4.053 -4.793"></polygon>
            </g>
            <g id="编组" transform="translate(178.000000, 136.939000)">
                <mask id="mask-39" fill="white">
                    <use xlink:href="#path-38"></use>
                </mask>
                <g id="Clip-41"></g>
                <polygon id="Fill-40" fill="#303131" mask="url(#mask-39)" points="-4.113 70.601 13.224 70.601 13.224 -4.579 -4.113 -4.579"></polygon>
            </g>
            <polygon id="Fill-42" fill="#EFF6FB" points="110.6869 260.0798 153.3769 281.2898 245.1769 245.1798 188.0169 226.6798"></polygon>
            <polygon id="Stroke-43" stroke="#CBE1E9" stroke-width="0.5" stroke-linecap="round" stroke-linejoin="round" points="188.0171 226.6802 110.6871 260.0802 153.3771 281.2912 245.1771 245.1802"></polygon>
            <g id="编组" transform="translate(152.000000, 169.939000)">
                <g>
                    <mask id="mask-41" fill="white">
                        <use xlink:href="#path-40"></use>
                    </mask>
                    <g id="Clip-45"></g>
                    <polygon id="Fill-44" fill="url(#linearGradient-42)" mask="url(#mask-41)" points="0.667 113.06 98.666 113.06 98.666 0.06 0.667 0.06"></polygon>
                </g>
                <g>
                    <mask id="mask-44" fill="white">
                        <use xlink:href="#path-43"></use>
                    </mask>
                    <g id="Clip-47"></g>
                    <polygon id="Fill-46" fill="url(#linearGradient-45)" mask="url(#mask-44)" points="0.817 22.141 1.098 112.202 93.177 75.241 97.686 0.581"></polygon>
                </g>
            </g>
            <g id="编组" transform="translate(107.000000, 247.939000)">
                <mask id="mask-47" fill="white">
                    <use xlink:href="#path-46"></use>
                </mask>
                <g id="Clip-49"></g>
                <polygon id="Fill-48" fill="#FAE1DB" mask="url(#mask-47)" points="-4.041 37.206 50.187 37.206 50.187 -4.979 -4.041 -4.979"></polygon>
            </g>
            <g id="编组" transform="translate(107.000000, 247.939000)">
                <mask id="mask-49" fill="white">
                    <use xlink:href="#path-48"></use>
                </mask>
                <g id="Clip-51"></g>
                <polygon id="Fill-50" fill="#F6C2C3" mask="url(#mask-49)" points="-6.793 40.801 51.42 40.801 51.42 -4.679 -6.793 -4.679"></polygon>
            </g>
            <g id="编组" transform="translate(0.000000, 140.939000)">
                <mask id="mask-51" fill="white">
                    <use xlink:href="#path-50"></use>
                </mask>
                <g id="Clip-53"></g>
                <polygon id="Fill-52" fill="#F0F2F9" mask="url(#mask-51)" points="-5 216.409 240.612 216.409 240.612 -4.44 -5 -4.44"></polygon>
            </g>
            <g id="编组" transform="translate(135.000000, 19.939000)">
                <mask id="mask-53" fill="white">
                    <use xlink:href="#path-52"></use>
                </mask>
                <g id="Clip-55"></g>
                <polygon id="Fill-54" fill="#FAE1DB" mask="url(#mask-53)" points="-4.951 78.092 64.63 78.092 64.63 -4.669 -4.951 -4.669"></polygon>
            </g>
            <g id="编组" transform="translate(157.000000, 37.939000)">
                <g>
                    <mask id="mask-55" fill="white">
                        <use xlink:href="#path-54"></use>
                    </mask>
                    <g id="Clip-57"></g>
                    <path d="M30.6748,6.7158 C30.5218,6.7158 30.3708,6.6638 30.2168,6.5298 L29.6668,6.0608 L30.4668,5.2558 C30.5248,5.2328 30.6408,5.1738 30.7508,5.1198 C30.8698,5.0618 30.9828,5.0068 31.0408,4.9818 C31.4698,4.8168 31.8788,4.6728 32.2788,4.5398 C33.8708,3.9888 35.2268,3.6748 36.5388,3.5538 C38.1098,3.4118 39.7338,3.4368 41.3638,3.6258 C41.3868,3.6288 41.6468,3.6628 41.9918,3.7098 C42.6578,3.7988 43.6568,3.9328 43.8448,3.9518 C44.0358,3.9618 44.2238,4.0438 44.3628,4.1968 C44.6418,4.5028 44.6178,4.9778 44.3128,5.2568 C44.0458,5.4978 44.0428,5.4968 41.7928,5.1958 L41.1928,5.1158 C39.6628,4.9388 38.1448,4.9158 36.6748,5.0488 C35.4868,5.1578 34.2438,5.4468 32.7618,5.9598 C32.3748,6.0888 31.9858,6.2248 31.6058,6.3708 C31.5888,6.3788 31.5028,6.4218 31.4118,6.4668 C31.1408,6.5998 30.9038,6.7158 30.6748,6.7158" id="Fill-56" fill="#343535" mask="url(#mask-55)"></path>
                </g>
                <g>
                    <mask id="mask-57" fill="white">
                        <use xlink:href="#path-56"></use>
                    </mask>
                    <g id="Clip-59"></g>
                    <path d="M17.958,7.5615 C17.719,7.5615 17.483,7.4475 17.338,7.2345 C16.752,6.3785 15.056,5.9035 13.933,5.5895 L13.732,5.5335 C11.208,4.8025 5.966,3.2835 2.682,4.2135 C2.283,4.3265 1.869,4.0945 1.756,3.6955 C1.643,3.2975 1.875,2.8825 2.273,2.7695 C5.972,1.7225 11.493,3.3225 14.145,4.0915 L14.338,4.1445 C15.669,4.5185 17.682,5.0825 18.576,6.3875 C18.81,6.7295 18.723,7.1965 18.381,7.4305 C18.251,7.5195 18.104,7.5615 17.958,7.5615" id="Fill-58" fill="#343535" mask="url(#mask-57)"></path>
                </g>
            </g>
            <g id="编组" transform="translate(130.000000, 41.939000)">
                <g>
                    <mask id="mask-59" fill="white">
                        <use xlink:href="#path-58"></use>
                    </mask>
                    <g id="Clip-61"></g>
                    <polygon id="Fill-60" fill="url(#linearGradient-60)" mask="url(#mask-59)" points="-1.333 24.06 22.667 24.06 22.667 -1.94 -1.333 -1.94"></polygon>
                </g>
                <g>
                    <mask id="mask-62" fill="white">
                        <use xlink:href="#path-61"></use>
                    </mask>
                    <g id="Clip-63"></g>
                    <path d="M12.354,0.372 C9.314,0.372 6.092,1.709 3.617,4.291 L3.617,4.291 C-0.753,8.861 -1.133,15.611 2.776,19.352 L2.776,19.352 C6.687,23.091 13.407,22.421 17.787,17.851 L17.787,17.851 C22.157,13.281 22.537,6.531 18.627,2.791 L18.627,2.791 C16.927,1.165 14.697,0.372 12.358,0.372 L12.358,0.372 C12.357,0.372 12.356,0.372 12.354,0.372" id="Fill-62" fill="url(#linearGradient-63)" mask="url(#mask-62)"></path>
                </g>
            </g>
            <g id="编组" transform="translate(174.000000, 42.939000)">
                <g>
                    <mask id="mask-65" fill="white">
                        <use xlink:href="#path-64"></use>
                    </mask>
                    <g id="Clip-65"></g>
                    <polygon id="Fill-64" fill="url(#linearGradient-66)" mask="url(#mask-65)" points="-0.333 29.061 13.666 29.061 13.666 0.061 -0.333 0.061"></polygon>
                </g>
                <g>
                    <mask id="mask-68" fill="white">
                        <use xlink:href="#path-67"></use>
                    </mask>
                    <g id="Clip-67"></g>
                    <path d="M9.017,2.761 C6.417,6.731 4.198,16.071 4.837,20.341 L4.837,20.341 C5.307,23.472 5.207,25.481 4.177,26.701 L4.177,26.701 C3.497,27.491 2.426,27.931 0.877,28.131 L0.877,28.131 C0.727,28.151 0.617,28.291 0.636,28.44 L0.636,28.44 C0.657,28.591 0.797,28.702 0.947,28.681 L0.947,28.681 C2.667,28.451 3.848,27.941 4.597,27.061 L4.597,27.061 C5.707,25.751 5.887,23.611 5.377,20.261 L5.377,20.261 C4.747,16.081 6.937,6.941 9.477,3.061 L9.477,3.061 C9.897,2.431 10.317,1.941 10.747,1.651 L10.747,1.651 C11.027,1.461 11.297,1.361 11.567,1.381 L11.567,1.381 C11.837,1.401 12.107,1.541 12.357,1.811 L12.357,1.811 C12.467,1.921 12.637,1.931 12.747,1.821 L12.747,1.821 C12.857,1.721 12.867,1.541 12.757,1.432 L12.757,1.432 C12.359,1.013 11.939,0.818 11.508,0.818 L11.508,0.818 C10.685,0.818 9.825,1.532 9.017,2.761" id="Fill-66" fill="url(#linearGradient-69)" mask="url(#mask-68)"></path>
                </g>
            </g>
            <g id="编组" transform="translate(139.000000, 46.939000)">
                <path d="M6.9165,10.3613 C6.8165,10.4413 6.4365,9.1713 6.3665,8.9213 C6.0465,7.9513 5.4665,7.0613 4.7065,6.3713 C4.0165,5.7413 3.2365,5.0213 2.3065,4.7713 C1.8565,4.6513 0.4465,4.5813 0.9165,4.5413" id="Stroke-68" stroke="#EDB4A9" stroke-width="0.55" stroke-linecap="round" stroke-linejoin="round"></path>
                <path d="M4.8271,7.4414 C4.8171,7.5414 4.2271,7.2714 3.9571,7.2714 C3.4971,7.2714 1.6271,7.6614 1.3871,8.0814" id="Stroke-70" stroke="#EDB4A9" stroke-width="0.55" stroke-linecap="round" stroke-linejoin="round"></path>
                <path d="M48.0449,2.1118 C44.1299,3.2478 41.7849,7.0698 42.8169,10.6328 C43.8509,14.2008 47.8669,16.1838 51.7889,15.0508 C53.7809,14.4738 55.4729,13.1488 56.4279,11.4128 C57.2739,9.8738 57.4829,8.1398 57.0159,6.5308 C55.9819,2.9628 51.9639,0.9788 48.0449,2.1118 M49.5629,16.8688 C45.8009,16.8688 42.4029,14.5938 41.3759,11.0508 C40.1129,6.6938 42.9179,2.0368 47.6279,0.6718 L47.6289,0.6708 C52.3399,-0.6912 57.1929,1.7508 58.4569,6.1128 C59.0359,8.1068 58.7819,10.2458 57.7409,12.1358 C56.5959,14.2178 54.5779,15.8048 52.2049,16.4918 C51.3219,16.7478 50.4329,16.8688 49.5629,16.8688" id="Fill-72" fill="#493E3F"></path>
                <path d="M23.9346,2.0908 C20.0206,3.2268 17.6746,7.0488 18.7066,10.6118 C19.2046,12.3268 20.4036,13.7318 22.0846,14.5668 C23.7876,15.4108 25.7736,15.5728 27.6776,15.0208 C29.6676,14.4488 31.3566,13.1298 32.3116,11.3998 C33.1636,9.8578 33.3746,8.1178 32.9066,6.4988 C32.4436,4.8908 31.3416,3.5378 29.8056,2.6908 C28.0706,1.7328 25.9296,1.5138 23.9346,2.0908 M25.4326,16.8428 C24.0376,16.8428 22.6656,16.5288 21.4176,15.9098 C19.3556,14.8858 17.8806,13.1528 17.2656,11.0288 C16.0046,6.6718 18.8086,2.0158 23.5176,0.6508 L23.5186,0.6498 C25.8936,-0.0372 28.4496,0.2278 30.5306,1.3768 C32.4176,2.4188 33.7736,4.0898 34.3476,6.0828 C34.9276,8.0858 34.6706,10.2318 33.6246,12.1258 C32.4776,14.2018 30.4616,15.7818 28.0936,16.4618 C27.2146,16.7168 26.3186,16.8428 25.4326,16.8428" id="Fill-74" fill="#483F3F"></path>
                <path d="M17.8301,10.7759 C17.4591,10.7759 17.0981,10.5359 16.7201,10.2849 L16.6201,10.2189 C15.3311,9.4889 14.2221,8.8209 13.2371,8.1799 C13.1181,8.0989 12.6811,7.8289 12.3461,7.6219 C12.2371,7.5549 12.1261,7.4849 12.0211,7.4119 C12.0041,7.4029 11.9851,7.3939 11.9681,7.3839 L11.9721,7.3759 C11.6351,7.1239 11.4021,6.8139 11.6811,6.3429 C11.8881,5.9929 12.3511,5.8759 12.7061,6.0779 C12.7321,6.0929 12.7571,6.1089 12.7801,6.1259 C12.8471,6.1679 12.9791,6.2499 13.1351,6.3459 C13.4921,6.5669 13.9601,6.8569 14.0701,6.9329 C15.0151,7.5469 16.0981,8.1999 17.3671,8.9189 C17.4061,8.9409 17.4701,8.9829 17.5501,9.0349 C17.6161,9.0799 17.7621,9.1759 17.8731,9.2409 C17.9581,9.2399 18.0481,9.2529 18.1351,9.2829 C18.5251,9.4209 18.7311,9.8489 18.5951,10.2389 C18.5171,10.4579 18.3131,10.6589 18.0941,10.7329 C18.0051,10.7619 17.9171,10.7759 17.8301,10.7759" id="Fill-76" fill="#483F3F"></path>
            </g>
            <g id="编组" transform="translate(187.000000, 51.939000)">
                <mask id="mask-71" fill="white">
                    <use xlink:href="#path-70"></use>
                </mask>
                <g id="Clip-79"></g>
                <polygon id="Fill-78" fill="#343535" mask="url(#mask-71)" points="-4.722 10.154 9.636 10.154 9.636 -4.291 -4.722 -4.291"></polygon>
            </g>
            <g id="编组" transform="translate(162.000000, 52.939000)">
                <mask id="mask-73" fill="white">
                    <use xlink:href="#path-72"></use>
                </mask>
                <g id="Clip-81"></g>
                <polygon id="Fill-80" fill="#343535" mask="url(#mask-73)" points="-4.697 9.974 9.657 9.974 9.657 -4.471 -4.697 -4.471"></polygon>
            </g>
            <path d="M173.1761,56.4009 C172.8241,56.4009 172.5111,56.1529 172.4401,55.7939 C172.3871,55.5199 172.4431,55.2479 172.6001,55.0269 C172.9011,54.5999 173.4231,54.5219 173.8841,54.4529 C173.9801,54.4389 174.0761,54.4249 174.1611,54.4069 C175.4761,54.1179 176.9481,53.9699 178.1951,54.0009 C179.0291,54.0239 179.8421,54.2419 180.5271,54.4539 C180.8711,54.5599 181.1151,54.9049 181.0761,55.2619 C181.0361,55.6189 180.7461,55.8999 180.3881,55.9289 C180.4231,55.9319 178.9261,55.8769 178.0611,55.4979 C176.9411,55.4809 175.6501,55.6159 174.4771,55.8729 C174.3601,55.8979 174.2341,55.9169 174.1051,55.9369 C174.0341,55.9469 173.9361,55.9619 173.8511,55.9779 C173.7521,56.1819 173.5611,56.3399 173.3201,56.3869 C173.2711,56.3959 173.2241,56.4009 173.1761,56.4009 L173.1761,56.4009 Z" id="Fill-82" fill="#483F3F"></path>
            <g id="编组" transform="translate(165.000000, 76.939000)">
                <mask id="mask-75" fill="white">
                    <use xlink:href="#path-74"></use>
                </mask>
                <g id="Clip-85"></g>
                <polygon id="Fill-84" fill="#CD7778" mask="url(#mask-75)" points="-4.323 8.177 22.117 8.177 22.117 -4.609 -4.323 -4.609"></polygon>
            </g>
            <g id="编组" transform="translate(121.000000, 0.939000)">
                <mask id="mask-77" fill="white">
                    <use xlink:href="#path-76"></use>
                </mask>
                <g id="Clip-87"></g>
                <polygon id="Fill-86" fill="#3F3F3F" mask="url(#mask-77)" points="-4.716 76.781 83.173 76.781 83.173 -4.531 -4.716 -4.531"></polygon>
            </g>
            <g id="编组" transform="translate(121.000000, 0.939000)">
                <mask id="mask-79" fill="white">
                    <use xlink:href="#path-78"></use>
                </mask>
                <g id="Clip-89"></g>
                <polygon id="Fill-88" fill="#343434" mask="url(#mask-79)" points="-19.912 91.194 51.206 91.194 51.206 -27.532 -19.912 -27.532"></polygon>
            </g>
            <path d="M150.9263,171.0171 C150.1293,171.0571 149.4263,170.4961 148.8353,169.3461 C142.3043,156.6491 120.8383,96.4781 120.6673,96.0001 C120.5783,95.7531 120.4203,95.0881 120.6673,95.0001 C120.9163,94.9121 121.5783,94.7531 121.6673,95.0001 C121.8383,95.4781 143.1773,156.2691 149.6793,168.9111 C150.1053,169.7391 150.5343,170.1271 150.9523,170.0601 C155.7913,169.3091 164.1723,129.7741 168.6253,103.3841 C168.6693,103.1241 168.9163,102.9511 169.1733,102.9941 C169.4313,103.0381 169.6063,103.2831 169.5623,103.5421 C168.4163,110.3311 158.1653,169.9021 151.0983,170.9991 C151.0413,171.0081 150.9833,171.0141 150.9263,171.0171" id="Fill-90" fill="#ECBCBC"></path>
            <g id="编组" transform="translate(142.000000, 166.939000)">
                <mask id="mask-81" fill="white">
                    <use xlink:href="#path-80"></use>
                </mask>
                <g id="Clip-93"></g>
                <polygon id="Fill-92" fill="#FCEFED" mask="url(#mask-81)" points="-4.7202 -3.3613 23.4378 -4.7733 25.3158 32.6837 -2.8432 34.0957"></polygon>
            </g>
            <g id="编组" transform="translate(142.000000, 165.939000)">
                <path d="M2.3511,29.3525 L19.5731,28.4895 L18.2441,1.9695 L1.0221,2.8325 L2.3511,29.3525 Z M20.0951,29.4145 L1.9241,30.3255 C1.6631,30.3385 1.4391,30.1365 1.4261,29.8745 L0.0491,2.4055 C0.0361,2.1445 0.2381,1.9205 0.4991,1.9075 L18.6711,0.9975 C18.9331,0.9835 19.1561,1.1855 19.1691,1.4475 L20.5461,28.9155 C20.5591,29.1775 20.3571,29.4005 20.0951,29.4145 L20.0951,29.4145 Z" id="Fill-94" fill="#ECBCBC"></path>
                <path d="M13.9385,9.2725 C14.0355,11.2035 12.5485,12.8465 10.6185,12.9435 C8.6875,13.0405 7.0435,11.5535 6.9475,9.6235 C6.8505,7.6925 8.3365,6.0485 10.2675,5.9525 C12.1985,5.8555 13.8415,7.3415 13.9385,9.2725" id="Fill-96" fill="#C3AFAE"></path>
                <polygon id="Fill-98" fill="#C3AFAE" points="15.4131 18.7104 5.4251 19.2104 5.3251 17.2134 15.3131 16.7124"></polygon>
                <polygon id="Fill-100" fill="#C3AFAE" points="17.6108 22.6055 3.6288 23.3065 3.5278 21.3085 17.5108 20.6075"></polygon>
            </g>
        </g>
    </g>
</svg>